# xmcd CD database file
#
# Track frame offsets:
#	150
#	12815
#	53625
#	83436
#	103409
#	138444
#	161843
#	182470
#	221134
#	242626
#	262869
#	278459
#
# Disc length: 4054 seconds
#
# Revision: 0
# Processed by: cddbd v1.5.1PL2 Copyright (c) Steve Scherf et al.
# Submitted via: CDex 1.51
#
DISCID=980fd40c
DTITLE=Various Artist - Jazz In Paris 4 (Rive Gauche, Rive Droite 1956-1959) Disc 3 (Les Grandes Rencontres)
DYEAR=2004
DGENRE=Jazz
TTITLE0=Générique du film L'ascenseur Pour L'éscafaud - Miles Davis
TTITLE1=Concerto no 2, L'éte - Raymond Fol
TTITLE2=Bess You Is My Woman Now - Eddy Louiss-Yvan Julien
TTITLE3=Milt Jackson's Tahiti - Kenny Clarke's Sextet plays André Hoddeir
TTITLE4=Crazy Rhythm - Lionel Hampton and his French New Sound
TTITLE5=Stomp, Look and Listen - The Swing Machine
TTITLE6=Makin' Whoopee - Oscar Peterson-Stéphane Grappelli
TTITLE7=Blues In The Dungeon - Stuff Smith-Stéphane Grappelli
TTITLE8=Lucky T. - Sammy Price-Lucky Thompson
TTITLE9=The Twins - Cat Anderson-Claude Bolling
TTITLE10=Paul - Cat Anderson-Claude Bolling
TTITLE11=Pentacostal Feeling - Lou Bennett-Donald Byrd and the Paris Jazz All Stars
EXTD=YEAR: 2004
EXTT0=
EXTT1=
EXTT2=
EXTT3=
EXTT4=
EXTT5=
EXTT6=
EXTT7=
EXTT8=
EXTT9=
EXTT10=
EXTT11=
PLAYORDER=
